REM DIRINDEX 1\3,1\5,1\6,1\2\7,1\2\8,1\4\9,1\4\10
REM DIRNAME folder01,folder02,folder03,folder04,folder05,folder06,folder07,folder08,folder09,folder10
TITLE ""
FILE "CD2Track19.mp3" MP3
  TRACK 01 AUDIO
    TITLE "9:cjc060_1500"
    INDEX 01 00:00:00
  TRACK 02 AUDIO
    TITLE "10:cjc060_1501"
    INDEX 01 00:01:24
  TRACK 03 AUDIO
    TITLE "9:cjc060_1502"
    INDEX 01 00:05:52
  TRACK 04 AUDIO
    TITLE "10:cjc060_1503"
    INDEX 01 00:06:69
  TRACK 05 AUDIO
    TITLE "9:cjc060_1504"
    INDEX 01 00:10:18
  TRACK 06 AUDIO
    TITLE "10:cjc060_1505"
    INDEX 01 00:11:37
  TRACK 07 AUDIO
    TITLE "9:cjc060_1506"
    INDEX 01 00:15:50
  TRACK 08 AUDIO
    TITLE "10:cjc060_1507"
    INDEX 01 00:17:16
  TRACK 09 AUDIO
    TITLE "9:cjc060_1508"
    INDEX 01 00:20:37
  TRACK 10 AUDIO
    TITLE "10:cjc060_1509"
    INDEX 01 00:21:62
  TRACK 11 AUDIO
    TITLE "9:cjc060_1510"
    INDEX 01 00:25:60
  TRACK 12 AUDIO
    TITLE "10:cjc060_1511"
    INDEX 01 00:27:18
  TRACK 13 AUDIO
    TITLE "9:cjc060_1512"
    INDEX 01 00:30:26
  TRACK 14 AUDIO
    TITLE "10:cjc060_1513"
    INDEX 01 00:31:39
  TRACK 15 AUDIO
    TITLE "9:cjc060_1514"
    INDEX 01 00:35:04
  TRACK 16 AUDIO
    TITLE "10:cjc060_1515"
    INDEX 01 00:36:27
  TRACK 17 AUDIO
    TITLE "9:cjc060_1516"
    INDEX 01 00:40:05
  TRACK 18 AUDIO
    TITLE "10:cjc060_1517"
    INDEX 01 00:41:42
  TRACK 19 AUDIO
    TITLE "9:cjc060_1518"
    INDEX 01 00:46:21
  TRACK 20 AUDIO
    TITLE "10:cjc060_1519"
    INDEX 01 00:47:32
  TRACK 21 AUDIO
    TITLE "10:cjc060_1520"
    INDEX 01 00:50:05
  TRACK 22 AUDIO
    TITLE "9:cjc060_1521"
    INDEX 01 00:53:41
  TRACK 23 AUDIO
    TITLE "10:cjc060_1522"
    INDEX 01 00:54:68
  TRACK 24 AUDIO
    TITLE "9:cjc060_1523"
    INDEX 01 00:57:58
  TRACK 25 AUDIO
    TITLE "10:cjc060_1524"
    INDEX 01 00:59:04
  TRACK 26 AUDIO
    TITLE "9:cjc060_1525"
    INDEX 01 01:02:44
  TRACK 27 AUDIO
    TITLE "10:cjc060_1526"
    INDEX 01 01:03:71
  TRACK 28 AUDIO
    TITLE "9:cjc060_1527"
    INDEX 01 01:06:65
  TRACK 29 AUDIO
    TITLE "10:cjc060_1528"
    INDEX 01 01:08:15
  TRACK 30 AUDIO
    TITLE "9:cjc060_1529"
    INDEX 01 01:12:32
  TRACK 31 AUDIO
    TITLE "10:cjc060_1530"
    INDEX 01 01:13:55
  TRACK 32 AUDIO
    TITLE "9:cjc060_1531"
    INDEX 01 01:17:30
  TRACK 33 AUDIO
    TITLE "10:cjc060_1532"
    INDEX 01 01:18:54
  TRACK 34 AUDIO
    TITLE "9:cjc060_1533"
    INDEX 01 01:21:67
  TRACK 35 AUDIO
    TITLE "10:cjc060_1534"
    INDEX 01 01:23:24
  TRACK 36 AUDIO
    TITLE "9:cjc060_1535"
    INDEX 01 01:27:44
  TRACK 37 AUDIO
    TITLE "10:cjc060_1536"
    INDEX 01 01:28:61
  TRACK 38 AUDIO
    TITLE "9:cjc060_1537"
    INDEX 01 01:32:08
  TRACK 39 AUDIO
    TITLE "10:cjc060_1538"
    INDEX 01 01:33:23
  TRACK 40 AUDIO
    TITLE "9:cjc060_1539"
    INDEX 01 01:36:43
  TRACK 41 AUDIO
    TITLE "10:cjc060_1540"
    INDEX 01 01:37:66
  TRACK 42 AUDIO
    TITLE "9:cjc060_1541"
    INDEX 01 01:41:42
  TRACK 43 AUDIO
    TITLE "10:cjc060_1542"
    INDEX 01 01:42:59
  TRACK 44 AUDIO
    TITLE "9:cjc060_1543"
    INDEX 01 01:45:61
  TRACK 45 AUDIO
    TITLE "10:cjc060_1544"
    INDEX 01 01:47:07
  TRACK 46 AUDIO
    TITLE "9:cjc060_1545"
    INDEX 01 01:50:45
  TRACK 47 AUDIO
    TITLE "10:cjc060_1546"
    INDEX 01 01:52:06
  TRACK 48 AUDIO
    TITLE "9:cjc060_1547"
    INDEX 01 01:57:06
  TRACK 49 AUDIO
    TITLE "10:cjc060_1548"
    INDEX 01 01:58:58
  TRACK 50 AUDIO
    TITLE "9:cjc060_1549"
    INDEX 01 02:02:62
  TRACK 51 AUDIO
    TITLE "10:cjc060_1550"
    INDEX 01 02:04:25
  TRACK 52 AUDIO
    TITLE "9:cjc060_1551"
    INDEX 01 02:08:09
  TRACK 53 AUDIO
    TITLE "10:cjc060_1552"
    INDEX 01 02:09:58
  TRACK 54 AUDIO
    TITLE "9:cjc060_1553"
    INDEX 01 02:14:26
  TRACK 55 AUDIO
    TITLE "10:cjc060_1554"
    INDEX 01 02:15:51
  TRACK 56 AUDIO
    TITLE "9:cjc060_1555"
    INDEX 01 02:19:42
  TRACK 57 AUDIO
    TITLE "10:cjc060_1556"
    INDEX 01 02:20:61
  TRACK 58 AUDIO
    TITLE "9:cjc060_1557"
    INDEX 01 02:24:30
  TRACK 59 AUDIO
    TITLE "10:cjc060_1558"
    INDEX 01 02:25:49
  TRACK 60 AUDIO
    TITLE "9:cjc060_1559"
    INDEX 01 02:29:27
  TRACK 61 AUDIO
    TITLE "10:cjc060_1560"
    INDEX 01 02:30:68
  TRACK 62 AUDIO
    TITLE "9:cjc060_1561"
    INDEX 01 02:34:69
  TRACK 63 AUDIO
    TITLE "10:cjc060_1562"
    INDEX 01 02:36:45
  TRACK 64 AUDIO
    TITLE "9:cjc060_1563"
    INDEX 01 02:40:72
  TRACK 65 AUDIO
    TITLE "10:cjc060_1564"
    INDEX 01 02:42:36
  TRACK 66 AUDIO
    TITLE "9:cjc060_1565"
    INDEX 01 02:46:67
  TRACK 67 AUDIO
    TITLE "10:cjc060_1566"
    INDEX 01 02:48:15
  TRACK 68 AUDIO
    TITLE "9:cjc060_1567"
    INDEX 01 02:51:07
  TRACK 69 AUDIO
    TITLE "10:cjc060_1568"
    INDEX 01 02:52:38
  TRACK 70 AUDIO
    TITLE "9:cjc060_1569"
    INDEX 01 02:56:06
  TRACK 71 AUDIO
    TITLE "10:cjc060_1570"
    INDEX 01 02:57:29
  TRACK 72 AUDIO
    TITLE "9:cjc060_1571"
    INDEX 01 03:00:04
  TRACK 73 AUDIO
    TITLE "10:cjc060_1572"
    INDEX 01 03:01:33
  TRACK 74 AUDIO
    TITLE "9:cjc060_1573"
    INDEX 01 03:04:35
  TRACK 75 AUDIO
    TITLE "10:cjc060_1574"
    INDEX 01 03:05:62
  TRACK 76 AUDIO
    TITLE "9:cjc060_1575"
    INDEX 01 03:09:60
  TRACK 77 AUDIO
    TITLE "10:cjc060_1576"
    INDEX 01 03:11:41
  TRACK 78 AUDIO
    TITLE "9:cjc060_1577"
    INDEX 01 03:15:17
  TRACK 79 AUDIO
    TITLE "10:cjc060_1578"
    INDEX 01 03:16:60
  TRACK 80 AUDIO
    TITLE "9:cjc060_1579"
    INDEX 01 03:21:71
  TRACK 81 AUDIO
    TITLE "10:cjc060_1580"
    INDEX 01 03:23:33
  TRACK 82 AUDIO
    TITLE "9:cjc060_1581"
    INDEX 01 03:28:44
  TRACK 83 AUDIO
    TITLE "10:cjc060_1582"
    INDEX 01 03:29:72
  TRACK 84 AUDIO
    TITLE "9:cjc060_1583"
    INDEX 01 03:33:45
  TRACK 85 AUDIO
    TITLE "10:cjc060_1584"
    INDEX 01 03:35:01
  TRACK 86 AUDIO
    TITLE "9:cjc060_1585"
    INDEX 01 03:38:54
  TRACK 87 AUDIO
    TITLE "10:cjc060_1586"
    INDEX 01 03:40:15
  TRACK 88 AUDIO
    TITLE "9:cjc060_1587"
    INDEX 01 03:44:37
  TRACK 89 AUDIO
    TITLE "10:cjc060_1588"
    INDEX 01 03:45:58
  TRACK 90 AUDIO
    TITLE "9:cjc060_1589"
    INDEX 01 03:49:65
  TRACK 91 AUDIO
    TITLE "10:cjc060_1590"
    INDEX 01 03:51:09
  TRACK 92 AUDIO
    TITLE "9:cjc060_1591"
    INDEX 01 03:54:59
  TRACK 93 AUDIO
    TITLE "10:cjc060_1592"
    INDEX 01 03:56:18
  TRACK 94 AUDIO
    TITLE "9:cjc060_1593"
    INDEX 01 04:00:12
  TRACK 95 AUDIO
    TITLE "10:cjc060_1594"
    INDEX 01 04:01:43
  TRACK 96 AUDIO
    TITLE "9:cjc060_1595"
    INDEX 01 04:05:58
  TRACK 97 AUDIO
    TITLE "10:cjc060_1596"
    INDEX 01 04:07:24
  TRACK 98 AUDIO
    TITLE "9:cjc060_1597"
    INDEX 01 04:10:66
  TRACK 99 AUDIO
    TITLE "10:cjc060_1598"
    INDEX 01 04:12:17
  TRACK 100 AUDIO
    TITLE "9:cjc060_1599"
    INDEX 01 04:16:13
  TRACK 101 AUDIO
    TITLE "10:cjc060_1600"
    INDEX 01 04:17:36
  TRACK 102 AUDIO
    TITLE "9:cjc060_1601"
    INDEX 01 04:21:05
  TRACK 103 AUDIO
    TITLE "10:cjc060_1602"
    INDEX 01 04:22:31
  TRACK 104 AUDIO
    TITLE "9:cjc060_1603"
    INDEX 01 04:25:71
  TRACK 105 AUDIO
    TITLE "10:cjc060_1604"
    INDEX 01 04:27:25
  TRACK 106 AUDIO
    TITLE "9:cjc060_1605"
    INDEX 01 04:30:53
  TRACK 107 AUDIO
    TITLE "10:cjc060_1606"
    INDEX 01 04:31:74
  TRACK 108 AUDIO
    TITLE "9:cjc060_1607"
    INDEX 01 04:35:32
  TRACK 109 AUDIO
    TITLE "10:cjc060_1608"
    INDEX 01 04:36:65
  TRACK 110 AUDIO
    TITLE "9:cjc060_1609"
    INDEX 01 04:41:01
  TRACK 111 AUDIO
    TITLE "10:cjc060_1610"
    INDEX 01 04:42:32
  TRACK 112 AUDIO
    TITLE "9:cjc060_1611"
    INDEX 01 04:46:28
  TRACK 113 AUDIO
    TITLE "10:cjc060_1612"
    INDEX 01 04:47:45
  TRACK 114 AUDIO
    TITLE "9:cjc060_1613"
    INDEX 01 04:50:49
  TRACK 115 AUDIO
    TITLE "10:cjc060_1614"
    INDEX 01 04:52:07
  TRACK 116 AUDIO
    TITLE "9:cjc060_1615"
    INDEX 01 04:56:28
  TRACK 117 AUDIO
    TITLE "10:cjc060_1616"
    INDEX 01 04:57:67
  TRACK 118 AUDIO
    TITLE "9:cjc060_1617"
    INDEX 01 05:01:49
  TRACK 119 AUDIO
    TITLE "10:cjc060_1618"
    INDEX 01 05:03:03
  TRACK 120 AUDIO
    TITLE "9:cjc060_1619"
    INDEX 01 05:06:68
  TRACK 121 AUDIO
    TITLE "10:cjc060_1620"
    INDEX 01 05:08:39
  TRACK 122 AUDIO
    TITLE "9:cjc060_1621"
    INDEX 01 05:13:19
  TRACK 123 AUDIO
    TITLE "10:cjc060_1622"
    INDEX 01 05:14:58
  TRACK 124 AUDIO
    TITLE "9:cjc060_1623"
    INDEX 01 05:18:38
  TRACK 125 AUDIO
    TITLE "10:cjc060_1624"
    INDEX 01 05:20:01
  TRACK 126 AUDIO
    TITLE "9:cjc060_1625"
    INDEX 01 05:25:12
  TRACK 127 AUDIO
    TITLE "10:cjc060_1626"
    INDEX 01 05:26:53
  TRACK 128 AUDIO
    TITLE "9:cjc060_1627"
    INDEX 01 05:30:41
  TRACK 129 AUDIO
    TITLE "10:cjc060_1628"
    INDEX 01 05:33:39
  TRACK 130 AUDIO
    TITLE "9:cjc060_1629"
    INDEX 01 05:37:25
  TRACK 131 AUDIO
    TITLE "10:cjc060_1630"
    INDEX 01 05:38:42
  TRACK 132 AUDIO
    TITLE "9:cjc060_1631"
    INDEX 01 05:42:32
  TRACK 133 AUDIO
    TITLE "10:cjc060_1632"
    INDEX 01 05:43:57
  TRACK 134 AUDIO
    TITLE "0:"
    INDEX 01 05:47:12
